<svg xmlns="http://www.w3.org/2000/svg" viewBox="0 0 640 420" role="img" aria-labelledby="title desc">
  <title id="title">Ilustração de simulação técnica automotiva</title>
  <desc id="desc">Veículo conectado a um painel de diagnóstico com falha, etapas de teste e retorno imediato.</desc>
  <defs>
    <linearGradient id="bg" x1="0" y1="0" x2="1" y2="1"><stop stop-color="#102642"/><stop offset="1" stop-color="#07101c"/></linearGradient>
    <linearGradient id="cyan" x1="0" y1="0" x2="1" y2="1"><stop stop-color="#66d6ff"/><stop offset="1" stop-color="#1d8de1"/></linearGradient>
    <linearGradient id="car" x1="0" y1="0" x2="1" y2="1"><stop stop-color="#2e90d4"/><stop offset="1" stop-color="#123a66"/></linearGradient>
    <filter id="glow"><feGaussianBlur stdDeviation="12"/></filter>
  </defs>
  <rect width="640" height="420" rx="36" fill="url(#bg)"/>
  <circle cx="510" cy="72" r="130" fill="#39b9f3" opacity=".09" filter="url(#glow)"/>
  <rect x="54" y="56" width="532" height="310" rx="24" fill="#091522" stroke="#2c4e69" stroke-width="2"/>
  <rect x="54" y="56" width="532" height="50" rx="24" fill="#12273d"/>
  <circle cx="84" cy="81" r="7" fill="#ff6f7d"/><circle cx="108" cy="81" r="7" fill="#f4c24f"/><circle cx="132" cy="81" r="7" fill="#62d89c"/>
  <text x="164" y="88" fill="#e8f5ff" font-family="Arial, sans-serif" font-size="19" font-weight="700">Diagnóstico interativo</text>
  <g transform="translate(84 134)">
    <path d="M38 112 58 64c6-14 19-23 34-23h125c16 0 30 9 36 24l18 47" fill="url(#car)" stroke="#6ed6ff" stroke-width="3"/>
    <path d="M83 50h111l24 52H61l22-52Z" fill="#0a2036" stroke="#4ebce9" stroke-width="3"/>
    <rect x="28" y="103" width="258" height="70" rx="24" fill="url(#car)" stroke="#78dcff" stroke-width="3"/>
    <circle cx="79" cy="170" r="31" fill="#07101a" stroke="#324e67" stroke-width="8"/><circle cx="237" cy="170" r="31" fill="#07101a" stroke="#324e67" stroke-width="8"/>
    <rect x="126" y="119" width="62" height="18" rx="9" fill="#9ae8ff" opacity=".9"/>
    <path d="M158 40V7m0 0-13 13m13-13 13 13" fill="none" stroke="#6dd8ff" stroke-width="5" stroke-linecap="round" stroke-linejoin="round"/>
  </g>
  <rect x="384" y="130" width="166" height="82" rx="17" fill="#10273d" stroke="#365d79"/>
  <text x="405" y="157" fill="#8ca7bd" font-family="Arial, sans-serif" font-size="14">Falha detectada</text>
  <text x="405" y="187" fill="#f5fbff" font-family="Arial, sans-serif" font-size="21" font-weight="700">Sistema elétrico</text>
  <rect x="384" y="228" width="166" height="108" rx="17" fill="#0d2b2d" stroke="#3a7569"/>
  <circle cx="416" cy="269" r="18" fill="#55d7a2"/>
  <path d="m407 269 7 7 13-16" fill="none" stroke="#06251b" stroke-width="5" stroke-linecap="round" stroke-linejoin="round"/>
  <text x="447" y="263" fill="#8fc9b5" font-family="Arial, sans-serif" font-size="14">Decisão testada</text>
  <text x="447" y="286" fill="#eafff7" font-family="Arial, sans-serif" font-size="17" font-weight="700">Diagnóstico</text><text x="447" y="307" fill="#eafff7" font-family="Arial, sans-serif" font-size="17" font-weight="700">correto</text>
  <rect x="405" y="321" width="123" height="9" rx="4.5" fill="#244f53"/><rect x="405" y="321" width="93" height="9" rx="4.5" fill="url(#cyan)"/>
</svg>
